/* XPM */
static char *d2318b4d85994dfccf2aa4df8b4c23ablOizjSb8j1NW0htn[] = {
/* columns rows colors chars-per-pixel */
"91 91 168 2 ",
"   c #000000",
".  c #0A0A0A",
"X  c #0D190D",
"o  c #120E1E",
"O  c #191919",
"+  c #171427",
"@  c #181327",
"#  c #1B1927",
"$  c #171429",
"%  c #181329",
"&  c #1C192E",
"*  c #1D1C31",
"=  c #211E34",
"-  c #1F212E",
";  c #1F2035",
":  c #1F2438",
">  c #21252F",
",  c #292929",
"<  c #292927",
"1  c #222235",
"2  c #252C35",
"3  c #24243B",
"4  c #28243B",
"5  c #2A293E",
"6  c #253735",
"7  c #2B3A3B",
"8  c #3D3D3D",
"9  c #2A342B",
"0  c #2A4137",
"q  c #2B4339",
"w  c #2F4E3C",
"e  c #324B3E",
"r  c #30443B",
"t  c #2F503D",
"y  c #2B2B43",
"u  c #2E2F4B",
"i  c #2C314D",
"p  c #31334B",
"a  c #37354A",
"s  c #313652",
"d  c #353953",
"f  c #3D3C51",
"g  c #3A3E5A",
"h  c #324340",
"j  c #324C40",
"k  c #3E5340",
"l  c #335940",
"z  c #3F5B4C",
"x  c #3D435E",
"c  c #3D6446",
"v  c #3F6F47",
"b  c #3E654A",
"n  c #3F684A",
"m  c #3D7147",
"M  c #3D7349",
"N  c #404040",
"B  c #405C4C",
"V  c #415440",
"C  c #434156",
"Z  c #5A5A5A",
"A  c #40644A",
"S  c #46764E",
"D  c #417B4C",
"F  c #4D7457",
"G  c #457953",
"H  c #547D57",
"J  c #53795A",
"K  c #454A63",
"L  c #4A4F64",
"P  c #404763",
"I  c #4B536B",
"U  c #52566F",
"Y  c #565C76",
"T  c #586077",
"R  c #5D677B",
"E  c #797979",
"W  c #777978",
"Q  c #676A67",
"!  c #3E8141",
"~  c #46864F",
"^  c #44884F",
"/  c #458751",
"(  c #4C8357",
")  c #4C8359",
"_  c #508957",
"`  c #518A5A",
"'  c #4F9F56",
"]  c #4F9F58",
"[  c #539656",
"{  c #569B5C",
"}  c #55A459",
"|  c #59B75E",
" . c #59B85F",
".. c #57B75E",
"X. c #599F62",
"o. c #619662",
"O. c #609869",
"+. c #5EAB62",
"@. c #59A162",
"#. c #61A269",
"$. c #68A46E",
"%. c #62B166",
"&. c #62BA65",
"*. c #65BC6E",
"=. c #63B068",
"-. c #68B070",
";. c #66B973",
":. c #5DC563",
">. c #5FCD65",
",. c #61C266",
"<. c #61CE66",
"1. c #62CE68",
"2. c #60C368",
"3. c #66D36A",
"4. c #6DCB75",
"5. c #74D279",
"6. c #76D97C",
"7. c #78D97B",
"8. c #7AE37F",
"9. c #616980",
"0. c #6A748D",
"q. c #758199",
"w. c #7FE985",
"e. c #7FF384",
"r. c #8B8B8B",
"t. c #848A9C",
"y. c #949494",
"u. c #8AB48C",
"i. c #9F9DA0",
"p. c #A3AABC",
"a. c #82D586",
"s. c #83D688",
"d. c #80E985",
"f. c #81E784",
"g. c #80F485",
"h. c #B2CEB4",
"j. c #B6D2B9",
"k. c #BDEABF",
"l. c #B9F2BB",
"z. c #B0F0B3",
"x. c #C1CDBF",
"c. c #BFF8C2",
"v. c #BFF3C3",
"b. c #C1CCC1",
"n. c #CECECE",
"m. c #D0CECF",
"M. c #CECED0",
"N. c #D2D2D2",
"B. c #C1EAC2",
"V. c #C0F9C2",
"C. c #D1E9D3",
"Z. c #D4F1D5",
"A. c #E0ECE1",
"S. c #EFEFEE",
"D. c #EBECEB",
"F. c #E1E1E1",
"G. c #F0F0EE",
"H. c #F1EFF0",
"J. c #F1EFF0",
"K. c #EFF1F0",
"L. c gray94",
"P. c #F1F1F1",
"I. c #F3F3F3",
"U. c #F0F0F0",
"Y. c #FFFFFD",
"T. c white",
"R. c #FEFFFF",
"E. c #FFFFFF",
/* pixels */
"$ % % % $ % $ & % % % % % % % % % % % % % % % % $ $ % % % % $ % $ % % % $ % % % % % % % % % % % % % % % % % % % % % $ % a i.$ % % % $ % % $ % % % % $ % % & % % % % % % % % % % % % % ",
"% % % % $ % $ 1 * % % % % % % % % % % % % % % % % % % % % % $ % % % % $ % % % % % $ % % % % % % % % % % % % % % $ $ % + % % % % $ % % % % % % % % $ % % $ 3 * $ % % % % % % % % % % % ",
"% % $ % % % % $ % % % % % % % % % % % % % % % % % % % $ $ % % % $ % $ % % % % % $ % % % % $ % % % % % % % % % % % % % % $ % % % % % % % % % $ $ % % % % % + % $ % % % % % % % % % % % ",
"$ % % % % % % $ % % % % % % % % % % % % % % % % % % % % % % % % % % % % $ % % % % % % % % % $ $ % % % % % % % % $ % @ % $ % % 3 % % % % % % % % % % $ $ % % % % % % % % % % % % % % % ",
"$ % % % % % % $ $ % % % % % $ % % % % % % % % % % % $ $ % % % $ $ $ % % % % % % $ % % % % $ $ % % % % % % % % % % $ % % $ $ @ % $ % % % $ $ % % % % % % % $ $ $ % % % % % % % % % % % ",
"% % % % % % % % % % % % % % % % % % % % % % % % % % % $ % $ 3 * $ % $ % % $ % % $ % % % $ $ % % % % % % % % % % % % % % $ % % % % $ % % g d % $ % % % % % % % % % % % % % % % % % % % ",
"% % % $ % % % % % % % % % % % % % % % % % % % % % % % $ % % & % s p % @ % $ $ % % $ % $ p p $ % % % % % % % % % % % % $ $ % % % % % % % 1 = % $ % % % % % $ $ % % % % % % % % % % % % ",
"% % % % % % $ % % % % % % % % % % % % % % % % % % % $ $ $ $ % $ 1 * $ % % % % % % % $ % = * % % % % % % % % % % % % $ p 9.% $ % % % $ % % % % % % % % % % % % % % % % % % % % % % % % ",
"% % % % % % $ % $ $ % % % % % 1 % % % % % % % $ % % % % % % % % % % % % % % % % % % % $ % % % % % % % % % % % $ $ % % 4 f % % $ @ % % % $ @ % % % % % % $ $ $ % % % % % % ; % % % % % ",
"% % % % % $ $ % % $ % $ $ % % * % % % % % % % % % % % % % % % % % % % % % % % % $ $ % $ $ $ % % $ $ % % % % % % % $ % % % % $ % $ $ $ % $ $ $ % $ % % % % $ % $ % % % % % ; % % % % % ",
"$ % $ $ $ % % $ % % % % % $ % % % % % % % % % % % % % % % % % % % % % % % % % % $ % % % % $ $ % % * d % % $ $ % % % % % % % % % % % % $ % % % % % % % % % % % $ % % % % % $ % % % % % ",
"% % % % $ % % % % % % % % % $ $ % % % % % % % % % % % % % % % % % % % % % % % % % % % % % $ % $ % = x % % % % % $ % % $ $ % % % % $ % % % % % % % % % $ % $ % % % % % % % % % % % % % ",
"% * $ % $ $ % $ $ $ % % % $ % $ % % % % % % % % % % % % % % % % % % % % % % % % % % % % $ $ % % % % % % % % $ % % % % % % % % $ % % $ % % % % * $ $ % % % % % % % % % % % % % % % % % ",
"1 s $ % % % $ * % % % $ % $ $ % % % % % % % % % % % % % % % % % % % % % % % % % % $ % % % % % % % % @ $ % % $ $ % % $ % % $ % % % $ $ $ % $ 3 i $ $ % % % * % % $ % % % % % % % % % % ",
"$ % % $ % % % P u $ % % % % $ % % % % % % % % % % % % % % % % % % % % % % % % % % % % % * & % % % % % % % % $ % $ % $ % % % % $ % % % % % $ % $ $ $ % % $ I y $ $ % % % % $ % % % % % ",
"$ % % % $ $ % % % % % $ $ % % % % % % % % % % % % % % % % % % % % % % % % % % % % % @ % x g % % % % $ $ % % % % % % % % $ % % % % % % % $ % % % $ % % % % $ $ % % % % $ % $ % $ % % % ",
"% % % $ % % % % $ % % % % % % % % % % % % % % % % $ $ % % % % % % $ % % % $ % % % % $ % $ % % % % % % % $ $ @ % % % % % % % % % % % % % % % % % % % % % $ % % % % % % % % % % % % % % ",
"% % $ % % % % % $ % % % % % % % % % % % % % % % % $ % % % $ % % % % % % $ % % % % $ % % % % % % % % $ % % % % % % % % % % % % % % % % % % % % % $ % % % $ $ $ % % % % % % % $ % % % % ",
"% % % $ % % % % % % % % % % % $ % % % % % % % % 5 R % % % $ $ $ $ % $ % $ @ % % $ % $ @ $ % $ % % % $ % $ % 1 * % % % % % % % % % % % % % % % % % $ % % $ $ % % % % % % % % % % % % % ",
"% % % 1 % % % $ % $ % % % $ $ % % % % % % % % % 1 y % $ $ % % % % $ $ % % $ % $ % % % $ % % % $ % % % $ % $ & % % % % % % % % % % % % % % % % % % 1 % % % % % $ % % % % % % % % % % % ",
"% % % * % % % $ * & $ % % % % $ % % % % % % % % $ % $ % % % % % $ $ $ % 6 0 q q q o o o o o # # # # > h h h h 2 % % % % % % % % % % % % % % % % % * % % % % * & % % % % % % % % % % % ",
"% % % $ % % % $ * & $ % % % % $ % % % % % % % % % % % % % $ % % % $ % % | 1.<.<.<.          , , , , k a.a.a.a.F % % % % % % % % % % % % % % % % % % $ % % % * & % % $ % % % % % % % % ",
"% % % % % % % % % % $ % % % % % % % % % % % % % $ $ $ % $ % % % % % % $ | 1.>.<.<.          , , , , V a.a.a.a.F % % % % % % % % % % % % % % % % % $ $ % % % % @ % % % % % % % % % % % ",
"% % % % % % % % % 4 3 $ % $ $ % % % % % % % % % % % $ $ $ % % % % % % $ | 1.<.<.<.          , , , , k a.a.s.a.F % % % % % % % % % % % % % % % % % $ % $ % $ $ y 1 % % % % % % % % % % ",
"% % % % % % % % % d s $ $ $ % $ % % % % % $ $ % % $ % % % % $ % % $ % $ | <.<.<.<.          , < , , k a.a.a.a.F % $ % % % % % % % % @ $ % % % $ % $ % % $ @ % g y % % % % % % % % % % ",
"% % % % % % % % $ % % % $ $ % % % % % $ % % % $ % % % % % % % w l l l l ! ! ! ! !           O O O O 9 o.o.o.o.J B B z B 2 % % $ % $ % % % % $ % % % $ % % % % % $ % % % % $ % % % % % ",
"% % % % % % % % $ $ $ $ % % $ % % % % % % % % % % % % % % % $ ] <.<.1.<.X                           . , , , , H a.a.a.a.B $ % % % % % $ $ % % % % % % % % $ % @ % $ $ % % % $ % % % % ",
"% % % % % % % % % $ $ % % % % % $ % % $ $ % % $ % $ % % $ % $ ] <.1.1.<.X                           . , , , , H s.a.a.a.B $ % % % % $ $ % % % $ % % % % % % % $ % % % % $ % $ % % % % ",
"% % % % % % % % % % % % % % % % % % % $ % % % % % $ % $ $ % q.;.<.1.<.<.X                           . , , , , H a.a.a.a.B % $ $ % + % % % + % % % $ % $ % % % % $ % $ $ % % $ % % % % ",
"% % % % % % % % % $ $ % % % % % $ % % % % % % % % $ + $ $ $ 1 } <.<.<.<.X                           . , , , , H s.a.a.a.B % + % $ % % % % % % % % % $ % % % $ % $ $ % % % % $ % % % % ",
"% % % % % % % % % % % % $ % % & t.4 % $ % % % % % % t G M M M | <.<.<.1.Q Q Q Q Q E E E W E E E E E E y.y.y.y.u.a.a.a.a.#.` ( ( ( 2 % % $ % % % % $ % $ % % % $ $ $ % % $ 4 t.= % % % ",
"% % % % % % % % % % % $ $ % % & a & % $ % % $ % % % ~ <.<.1.<.<.<.<.<.1.b.n.n.M.m.I.I.J.S.I.I.J.J.I.I.R.R.R.R.B.a.a.a.a.f.e.g.g.g.j $ % % % % % % $ % % % % % % % % % % $ & f % % % % ",
"% % % % % % % % % % % % % % % % % % % % % % % % % % ^ 1.<.<.1.<.<.<.<.<.b.n.n.n.n.S.I.I.I.I.S.L.I.I.I.R.R.R.R.B.a.a.a.a.f.g.e.g.g.j % % % % % % % % % % % % % % % % % % % % % % % % % ",
"% % % % % % % % % % % % % % % % % % % % % % % % % % ^ <.>.1.<.<.1.1.<.<.b.n.n.n.n.I.I.I.S.L.S.S.I.I.I.R.R.R.R.B.a.s.a.a.f.g.e.g.g.j % % % % % % % % % % % % % % % % % % % % % % % % % ",
"% % % % % % % % % % % % % % % % % % % % % % % % % % ~ <.<.1.<.<.<.1.<.<.x.n.n.n.n.I.S.S.S.S.L.S.I.I.I.R.R.R.R.B.a.s.a.a.f.g.g.g.g.j % % % % % % % % % % % % % % % % % % % % % % % % % ",
"% % % % % % % % % % % % % % % % % % % % % % % % % % ~ <.<.<.1.,.&.&.&.&.b.n.n.n.n.I.I.S.L.F.Z Z Z Z r.R.R.R.R.v.w.f.f.f.e.g.g.g.g.j % % % % % % % % % % % % % % % % % % % % % % % % % ",
"% % % % % % % % % % % % % % % % % % % % % % % % % % ~ 1.1.<.<.%.%.%.%.%.b.n.n.n.n.S.I.S.I.N.        N R.R.R.R.c.g.g.g.g.g.g.e.g.g.j % % % % % % % % % % % % % % % % % % % % % % % % % ",
"% % % % % % % % % % % % % % % % % % % % % % % % % % ~ <.1.<.<.&.%.%.%.%.b.n.n.n.n.S.S.S.I.N.        N R.R.R.R.c.e.e.g.g.g.g.g.g.g.j % % % % % % % % % % % % % % % % % % % % % % % % % ",
"% % % % % % % % % % % % % % % % % % % % % % % % $ % / <.<.<.<.%.%.%.%.%.b.n.n.n.n.I.I.I.I.N.        N R.R.R.R.c.g.g.g.g.e.e.e.g.g.j % % % % % % % % % % % % % % % % % % % % % % % % % ",
"% % % % % % % % % % % % % % % % % % % % % % % % $ % / <.<.<.<.&.%.%.%.%.b.n.n.n.n.I.I.I.I.N.        N R.R.R.R.c.g.g.e.g.g.g.g.e.g.j % % % % % % % % % % % % % % % % % % % % % % % % % ",
"% % % % % % % % $ % % % % $ % % % $ % $ % % $ % $ $ v } } } } +.%.%.%.%.b.n.n.n.n.8 8 8 8 ,         N R.R.R.R.V.g.g.g.g.g.g.g.g.g.j % $ $ % $ % % $ % $ $ % $ % % % % % $ % % % % % % ",
"% % % % % % % % % % % $ % % $ $ $ $ % % % % $ % % % c [ [ [ [ +.%.%.%.%.b.n.n.n.n.                  N R.R.R.R.c.g.g.g.g.g.g.g.g.g.j $ % % % % % % % % % $ $ % % % $ % % % % $ % % % % ",
"% % % % % % % % % $ % % % $ % + $ $ % % % % % % % $ c [ [ [ [ +.%.%.%.%.b.n.n.n.n.                  8 R.R.R.R.c.g.g.g.g.g.g.g.g.e.j $ % % % % % % % % % % % % % $ $ $ $ % % % $ % % % ",
"% % % % % % % % * & $ % $ % % $ % $ % % % % % % % $ c [ [ [ [ +.%.%.%.%.b.n.n.n.n.                  N R.R.R.R.c.g.g.g.g.g.g.g.g.g.j % $ % % % % % % % $ $ % * & % $ % $ % % % % % % % ",
"% % % % % % % % & % $ % % 4 Y & % % % % % % % % $ % c [ [ [ [ +.%.%.%.%.b.n.n.n.n.                  N R.R.R.R.V.g.g.g.g.g.g.g.g.e.j % $ % % % % $ % % % % % & % % $ % y U $ % $ % % % ",
"% % % % % % % % % % $ $ % = L & % % % $ % % % % $ $ ~ :.:.:.:.%.%.%.%.%.b.n.n.n.n.N.N.N.N.N.N.N.N.N.N.I.I.I.I.l.g.g.g.g.g.g.g.g.g.j % % 1 1 % $ % % % % $ $ $ $ % % % 5 K % % % % % % ",
"% % % % % % % % % % $ % % + $ @ 3 % % % % % % % $ % ~ <.<.<.<.&.%.%.%.%.b.n.n.n.n.I.I.I.S.I.S.I.I.I.I.I.I.I.I.l.g.g.g.g.g.g.g.g.g.j % % 3 3 % $ % % % % % % % % % % @ % % & 3 % % % % ",
"% % % % % % % % $ $ % $ % $ % % y % % $ % $ $ % % % ~ 1.1.<.<.&.%.%.%.%.b.n.n.n.n.I.I.I.S.S.S.I.I.I.I.I.I.I.I.l.g.g.g.g.g.g.g.g.g.j $ % % $ % % % % % $ % $ % $ % $ % $ % % u % % % % ",
"% % % $ % % % % % % % % % % % % % % % % % % % % $ % ^ 1.1.<.<.&.%.%.=.%.b.n.n.n.n.I.S.S.S.L.I.I.I.K.L.S.I.I.K.l.e.g.g.g.g.e.e.g.g.j % % % % $ % $ % % $ % % % % % % % % % % % % % % % ",
"% % % % % % % $ % % % % % % % % % % % % % % % % % $ D |  .|  .&.%.%.%.%.h.b.b.b.b.S.D.D.D.D.I.I.I.I.D.Z.A.A.A.z.e.g.g.g.8.6.6.5.6.j % % % % $ % % % % % $ % % % % % % % % % % % % % % ",
"% % % % $ % % % % % % % % % % % % % % % % % % % % % $ % % % $ ] 1.1.<.>.<.<.<.1.1.n.n.n.n.N.I.I.S.S.C.5.5.5.5.8.g.g.g.g.n $ % % % % % $ % $ % % % % % % $ % % % % % % % % % % % % % % ",
"% % % $ $ $ % $ % % % % % % % % % % % % % % % % % % $ % % % % ] 1.<.<.<.<.<.<.<.<.n.n.n.n.N.I.I.L.S.C.5.5.5.5.8.g.g.g.g.b % % % % % % % $ % % $ $ % % % $ % % % % % % % % % % % % % % ",
"$ % % % % $ % % % % % % % % % % % % % % % % % % % % % % % $ % ' <.<.1.<.<.<.1.<.1.n.n.M.n.N.I.I.J.J.C.5.5.5.5.8.e.e.g.e.b % % % % % % $ % % $ @ % % % % % % % % % % % % % % % % % % % ",
"R % % % % % @ $ % % % % % % % % % % % % % % % % % % % % % % $ ] <.<.>.<.<.1.<.<.1.n.n.n.n.N.I.I.G.J.C.5.5.5.5.8.g.g.g.g.n % % % % $ % % % K I $ % % % $ $ % % % % % % % % % % % % % % ",
"5 % $ % % % 1 & % % % % % % % % % % % % % % % % % % % % $ $ % D ' ' ' ' :.1.1.<.<.h.h.h.h.j.Z.Z.Z.Z.k.7.6.6.7.4.*.*.*.*.e % % % % $ % $ % 4 4 @ $ % $ % : % % % % % % % % % % % % % % ",
"% + $ % % % * % % % % % % % % % % % % % % % % % $ % % % % $ % % % % % %  .<.<.<.1.<.<.<.1.3.g.g.g.g.g.g.g.g.g.) % % % % @ % % % % % % % $ % % % $ % % % * % % $ % % % % % % % % % % % ",
"% % % % % % % % % % % % % % % % % % % % % % % % % $ % $ % % % % $ % + % ..<.<.1.<.<.<.<.<.3.g.g.e.g.g.g.e.e.g.( % % $ % % % $ % % % % % % % % % % % % % % % % % % % % % % % % % % % % ",
"% % % % % % % % % % % % % % % % % % % % % % % % % % % % $ % $ % % y y $ | <.<.<.<.<.<.<.<.3.g.g.g.g.g.g.e.g.e.) % $ % % % $ = L * % % % $ $ $ % % % % % % % % % % % % % % % % % % % % ",
"% % % % % % % % % % % % % % % % % % % % % % % % % $ % $ $ $ % $ % p p %  .<.<.1.<.<.<.<.<.3.g.g.e.e.g.g.g.g.g.) % $ % % $ % = T 1 @ 1 * % @ % % % % % % % % % % % % % % % % % % % % % ",
"% % % % % % % % % % % % % % % % % % % % % % % % % $ % $ % % % q j j j j :.<.<.<.<.<.<.<.<.3.g.g.g.g.g.w.w.f.w.#.z B z z 2 % % $ @ $ i = $ $ % % % % % % % % % % % % % % % % % % % % % ",
"% % % % % % % % % % % % % % % % % % % % % % % % % % $ $ % % $ _ %.%.%.%.<.<.<.<.<.<.<.<.<.3.g.g.g.g.d.a.a.a.a.a.a.a.a.a.B $ % % % % % % % % $ % % % % % % % % % % % % % % % % % % % % ",
"% % % % % % % % % % % % % % % % % % % % % % % % $ % % % $ % % _ %.%.%.%.<.<.<.<.<.<.<.<.<.3.g.g.g.e.f.a.a.a.a.a.a.a.a.a.B $ % $ % % $ % $ % $ % % % % % % % % % % % % % % % % % % % % ",
"% % % % % % % % % % % % % % % % % % % % % % % % % % % $ % % % _ %.%.%.%.<.<.<.<.<.<.<.<.<.3.g.g.e.e.d.s.a.a.a.a.s.s.a.a.B % % % % % % % % % % % % % % % % % % % % % % % % % % % % % % ",
"% % % % % % % % % % % % % % % % % % % % % % % % C p.% % % @ 3 ` %.%.%.%.<.<.<.<.<.<.<.<.<.3.g.g.g.g.d.a.a.a.a.a.a.a.a.a.B % $ @ % % % % $ % % % % % % % % % % % % % % % % % % % % % % ",
"$ % % $ % % % % $ % $ % % % % % % % % % % % % % * 4 r c c c A { %.%.%.%.D M M M M M M M M M ) ) ( ( ) F F F F $.a.a.a.a.O.F F F F 2 % % % % % % % $ $ % % $ $ % $ % % $ $ % $ % % % % ",
"% % % % % % $ $ % $ % % % % % $ % % % % % % % % $ % S %.%.%.%.%.%.%.%.%.1 % % % % % % % % % % % * s $ $ $ 3 & F a.a.a.s.a.a.a.a.a.h % $ % % % % % % $ @ % % $ $ % % % % % % % % % % % ",
"% % % % % % $ $ % % % % % % % % % % % % % % % % % % S %.=.%.%.%.%.%.%.%.1 % $ % $ $ % % % % % % % * @ $ $ & $ F a.a.a.a.a.a.a.a.a.h % % % $ % $ % % % % % $ $ @ % % % % % % % % % % % ",
"% % % % % % % % % % % % % % % % % % % % % % % % $ $ S %.%.%.%.%.%.%.%.%.1 $ $ % % % % % % % % % % % % % $ % % F a.a.a.a.a.a.a.a.a.h % % % % % $ % % % % % % % % $ % % $ $ % % $ % % % ",
"% % % % % % % % % p p % % % % % % % % % % % % % % $ S %.%.%.%.%.%.%.%.%.> % % % % % % % % % $ % @ % % % % $ % F a.a.a.a.a.a.a.a.a.h % $ % $ % % % % $ % % % $ d 5 $ % % % % % % % % % ",
"$ % % % $ % % $ % y y $ % $ % % % % % % % % % % $ $ ~ ,.,.2.,.b j j j j & $ % % % % % % % % % % $ % % % % % % 7 B B z z -.w.w.w.f.e % % % % % $ $ $ % % % $ % p 3 % % $ % % $ % % % % ",
"% % % $ $ % % & % % % % % % % % % % % % % % % % % % / <.<.<.<.q $ $ % % % $ % % % % % % % % % % $ % % % $ % $ $ % % $ $ @.g.g.g.g.j $ % % % % $ % % % $ % * % % % % % $ % % $ % % % % ",
"% % % % % % $ ; * % % $ $ $ % % % % % % % % % % % % ^ <.<.<.<.0 $ % $ % % $ % % % % % % % % % % % % % % $ % % % % $ % % X.e.e.g.e.e $ % % % % $ % % % % $ 1 & % % % % % % % % $ % % % ",
"% % % % % % % % % $ $ $ % % $ $ % % % % $ % % % + @ ~ <.<.<.<.q $ % % % % % % % % $ % % $ $ % $ % % % % % % % % % % $ % X.e.g.g.g.e % $ $ % % $ % % % % % % % % $ $ % % % % $ % % % % ",
"% % % % % % % % % % % % % % % % % % % % % % % % % % ^ 1.<.<.1.q $ $ $ % % $ % % $ % % % % $ % % % % % % % % % % % % $ $ X.g.g.e.g.e % $ % % $ $ % % % % % % % % % % % % $ % $ % % % % ",
"% % % % % % % % % $ % % % $ % % % % % % % % % % % % 6 q q 0 q & $ % % % % % % % % % $ % $ $ % % % % % % % % % % % % % % 7 j j e j - % $ $ $ $ $ % % % % % % % % % % % % $ % % % % % % ",
"% % % % % % % % % % % % % % % $ % % % % % % % % $ % $ % % % 3 * % % $ $ % % $ $ $ % $ % $ $ % % % % % % % % % % % % % $ % % % @ % % % % x x $ $ % % % % % % % % % $ % $ % $ $ $ % % % ",
"% % % % % % % % % % % $ $ % % % % % % % % % % % % % % % % % % % g p $ % % $ % % % % % % g d $ % % % % % % % % % % % % $ % $ % % $ % % $ & * % % % % % % % % % % % % % % % % % $ % % % ",
"% % % % % % % % % % % % % $ % % % % % % % % % % % % % % % $ % % & & % % % % $ % % % % % & % % % % % % % % % % % % % $ d 0.$ % % % % % % % % % $ % % % % % % % % % % % % % % $ % % % % ",
"% % % % % % % % % $ % % % % % 1 % % % % % % % % % $ $ $ % % $ $ $ % % % $ % % % $ % % % % % % % % % % % % % % % $ $ % = y % % $ $ % % % % % % % % % % % % % % % $ % % % % 1 % % % % % ",
"% % % % % % % % % % $ $ % % % * % % % % % % % % % % % $ % % % % % % % % % % % % % % % % % % % % % % % % % % % % $ % $ % % $ % $ % % % % % % $ % % % % % % % % % % $ % % % * % % % % % ",
"% $ % % $ % $ % % $ % % % % % % % % % % % % % % % % % % % % % % % % % % % % % % @ % % @ % % % % % * d % % % % % % % % % % % % % % % % % % % % % % % % % % $ % % % % % % % % % % % % % ",
"% $ + $ $ % % $ % % % % $ % % % % % % % % % % % % % % % % % % % % % % % % % % % $ $ $ $ $ $ % % % * d % % % % % % % % % % % % % $ $ % % % $ $ + $ % % $ % $ % $ % % % % % % % % % % % ",
"& 3 $ $ % $ % % $ % % % % % % % % % % % % % % % % % % % % % % % % % % % % % % % % % % % % % $ % % % % $ $ % % % % % % % % % % % % % $ % % $ * 1 $ % % $ $ $ % $ % % % % % % % % % % % ",
"1 i $ % % % % = * $ % % % % % % % % % % % % % % % % % % % % % % % % % % % % % % % % % % % $ % % % % % % % % % % % % % % % % % % $ % $ % @ $ 3 y $ $ % % $ 3 * % % % % % % % % % % % % ",
"% $ % % % % % x y $ % % % % % % % % % % % % % % % % % % % % % % % % % % % % % % % % % % = 1 % $ $ $ $ $ % % $ $ % % % % % % % % % % $ $ $ % % % % $ % % % P 3 $ % % % % % % % % % % % ",
"% $ $ % % $ % % $ % % % % % % % % % % % % % % % % % % % % % % % % % % % % % % % % $ % % d d % % % $ % % $ % % $ % % % % % % % % $ $ $ % % % % % % % $ % $ % % % % % % % % % % % % % % ",
"% % % % $ % $ % % % % % % % % % % % % % % % % % % % % % % % % % % % % % % % % % $ % % % % $ % % % % $ % % % % % % % % % % % % % % % $ % % % % % % % % $ % @ % % % % % % % % % % % % % ",
"% % % % % % % $ % $ % % % % % % % % % % % % % % % % % % % % % % % % % % % % % % % % % % % % $ % % % % $ $ % % $ % % % % % % % % % % % % % % % % $ % % % % $ % % % % % % % % % % % % % ",
"% % % $ % % % % % $ % % % % % $ % % % % % % % % p 0.% % % % % % % % % % % % % % % % % % % % % % $ % % $ % % 3 * % % % % % % % % % % % % % % % % % $ % $ % % $ $ % % % % % % % % % % % ",
"% % % 4 % $ $ % % $ % % % % % % % % % % % % % % & 1 % $ % $ % % % % % % % % % % % % % % % % % % % % % % % % % % % % % % % % % % % % % % % % % % % 3 % % $ % % $ % % % % % % % % % % % ",
"% $ % & $ % % $ * * % % % % % % % % % % % % % % $ % $ % $ % % % % % % % % % % % % % % % % % % % % % $ % $ % $ % % % % % % % % % % % % % % % % % % & % $ % $ ; * % % % % % % % % % % % "
};
