/* XPM */
static char *_29829a34cb546c88093ff2120ee0b9aiSo0ygPgL21kBAYQ[] = {
/* columns rows colors chars-per-pixel */
"91 91 140 2 ",
"   c #010101",
".  c #080806",
"X  c #05040A",
"o  c #08070E",
"O  c #0A0A0D",
"+  c #10100E",
"@  c #0A0712",
"#  c #0B0913",
"$  c #0E0B19",
"%  c #110E1D",
"&  c #141414",
"*  c #14131C",
"=  c #191919",
"-  c #130F20",
";  c #151124",
":  c #181327",
">  c #1C1B25",
",  c #171329",
"<  c #181329",
"1  c #1C192E",
"2  c #1D1C32",
"3  c #201F27",
"4  c #221E34",
"5  c #1F2035",
"6  c #262626",
"7  c #282627",
"8  c #272729",
"9  c #2A2A2A",
"0  c #232137",
"q  c #2C2B31",
"w  c #23233A",
"e  c #28263C",
"r  c #2A283E",
"t  c #323232",
"y  c #36353A",
"u  c #3B3B3B",
"i  c #262640",
"p  c #2A2B44",
"a  c #2F2F49",
"s  c #2C314D",
"d  c #333344",
"f  c #393546",
"g  c #32344C",
"h  c #333752",
"j  c #353954",
"k  c #3D3B50",
"l  c #3A3F5B",
"z  c #3C425C",
"x  c #434343",
"c  c #4C4C4C",
"v  c #535353",
"b  c #5B5B5B",
"n  c #61615F",
"m  c #404763",
"M  c #424965",
"N  c #48526D",
"B  c #5C6479",
"V  c #606060",
"C  c gray38",
"Z  c #626262",
"A  c gray39",
"S  c #646464",
"D  c #656565",
"F  c #656567",
"G  c #626262",
"H  c #686868",
"J  c DimGray",
"K  c gray42",
"L  c #6C6C6C",
"P  c #6D6D6D",
"I  c #6A6A6A",
"U  c #6E6E70",
"Y  c gray44",
"T  c #717171",
"R  c #747474",
"E  c gray46",
"W  c #777576",
"Q  c #757776",
"!  c #767676",
"~  c #777777",
"^  c #737373",
"/  c #787876",
"(  c #767678",
")  c gray47",
"_  c #797979",
"`  c gray48",
"'  c #7C7C7C",
"]  c gray49",
"[  c gray50",
"{  c #7C7C7C",
"}  c #616980",
"|  c #6A748D",
" . c #808080",
".. c #818181",
"X. c gray51",
"o. c #838383",
"O. c #848484",
"+. c #868686",
"@. c gray53",
"#. c #848484",
"$. c #878789",
"%. c #878789",
"&. c #898989",
"*. c gray54",
"=. c #8B8B8B",
"-. c #8C8A8B",
";. c gray55",
":. c #8D8D8D",
">. c #8E8E8E",
",. c gray56",
"<. c #8C8C8C",
"1. c #90908E",
"2. c #868D9F",
"3. c #909090",
"4. c gray57",
"5. c #929292",
"6. c #939393",
"7. c gray58",
"8. c #959595",
"9. c #979795",
"0. c gray59",
"q. c #979797",
"w. c #949494",
"e. c #989898",
"r. c gray60",
"t. c #99999B",
"y. c #9A9A9A",
"u. c gray61",
"i. c #9D9D9D",
"p. c #9E9E9C",
"a. c #9D9D9F",
"s. c #9F9D9E",
"d. c #9D9F9E",
"f. c gray62",
"g. c #9F9F9F",
"h. c #9E9E9E",
"j. c #9EA09F",
"k. c #9F9DA0",
"l. c #9E9EA0",
"z. c #9E9EA0",
/* pixels */
"  $ < < < < , 1 < < < < < < < < < < < < < < < < , , < < < < , < , < < < , < < < < < < < < < < < < < < < < < < < < < , < f l., < < < , < < , < < < < , < < 1 < < < < < < < < < < < < < ",
"$ ; < , < < , 0 2 < < < < < < < < < < < < < < < < < < < < < , < < < < , < < < < < , < < < < < < < < < < < < < < , , < : < < < < , < < < < < < < < , < < , w 2 , < < < < < < < < < < < ",
"< < < , , < , < < < < < < < < < < < < < < < < < < < < , , < < < , < , < < < < < , < < < < , < < < < < < < < < < < < < < , < < < < < < < < < , , < < < < < : < , < < < < < < < < < < < ",
"< < < , < < < , < < < < < < < < < < < < < < < < < < < < < < < < < < < < , < < < < < < < < < , , < < < < < < < < , < : < , < < e < < < < < < < < < < , , < < < < < < < < < < < < < < < ",
"< < < , < < < < , < < < < < , < < < < < < < < < < < , , < < < , , , < < < < < < , < < < < , , < < < < < < < < < < , < < , , : < , < < < , , < < < < < < < , , , < < < < < < < < < < < ",
"< < < < < < < < < < < < < < < < < < < < < < < < < < < , < , w 2 , < , < < , < < , < < < , , < < < < < < < < < < < < < < , < < < < , < < l j < , < < < < < < < < < < < < < < < < < < < ",
"< < < < < < < < < < < < < < < < < < < < < < < < < < < , < < 1 < h g < : < , , < < , < , g g , < < < < < < < < < < < < , , < < < < < < < 0 4 < , < < < < < , , < < < < < < < < < < < < ",
"< < < < < < < < < < < < < < < < < < < < < < < < < < , , , , < , 0 2 , < < < < < < < , < 4 2 < < < < < < < < < < < < , g } < , < < < , < < < < < < < < < < < < < < < < < < < < < < < < ",
"< < < < < < , < , , < < < < < w < < < < < < < , , < < < < < < < < < < < < < < < < < < < < < < < < ; # # # # # # $ < $ > d # % , < < < < < < < < < < < < , , , < < < < < < 5 < < < < < ",
"< < < < < , , < < , < , , < < 2 < < < < < < < < < < < < < < < < < < < < < < < < < < < < < < < < , %             X < X       # , , < < < , , , < , < < < < , < , < < < < < 5 < < < < < ",
", < , , , < < , < < < < < , < < < < < < < < < < < < < < < < < < < < , < < < < < , X                   =.g.g.g.c       8 g.&         X , < < < < < < < < < < < , < < < < < , < < < < < ",
"< < < < , < < < < < < < < < , , < < < < < < < < < < < < < < < < < < < < < < , ; o X 7 C C C C C C v 9 b D D D v x C C K g.L C C C 7   o ; , < < < < < , < , < < < < < < < < < < < < < ",
"< 2 , < , , < , , , < < < , < , < < < < < < < < < < < < < < < < < < < < < < ; ; 7 7 b g.g.g.g.g.g.,.b b b b x c C ,.r.g.g.g.7.,.,.x =   % , 1 2 , , < < < < < < < < < < < < < < < < < ",
"0 h , < < < , 2 < < < , < , , < < < < < < < < < < < < < < < < < < < < < < , o 7 g.g.g.g.g.g.g.g.g.g.g.g.g.l.x x x C ,.g.g.g. .C n C v   % , i s , , < < < 2 < < , < < < < < < < < < < ",
", < < , < < < m a , < < < < , < < < < < < < < < < < < < < < < : < < < < < X x  .g.g.g.g.g.g.g.g.g.g.g.g.g.g.$.D x C L Y Y Y b c c c x t 1 < < < , , < < , N i , , < < < < , < < < < < ",
", < < < , , < < < < < , , < < < < < < < < < < < < < < < < < : % $ $ $ $ $ u E g.l.g.g.g.g.g.g.g.g.g.g.g.g.g.g. .C v v v v v b D D D D D 3 % < < , < < < < , , < < < < , < , < , < < < ",
"< < < , < < < < , < < < < < < < < < < < < < < < , < < < < < < X           g.g.g.g.g.g.g.g.g.g.g.g.g.g.g.g.g.g.g.6.x x x x x Y g.g.g.g.g.7 o , , < < < < < , , < < < < < < < < < < < < ",
"< < , < < < < < , < < < < < < < < < < < < < < < < $           E g.g.g.g.g.g.g.g.g.g.g.g.g.g.g.g.g.g.g.g.g.g.g.g.g.g.g.g.g.g.g.g.g.g.g.g.g.C     # , < < < < < , < < < < < < , < < < < ",
"< < < , < < < < < < < < < < < , < < < < < < < < % >   c x u c =.g.g.g.g.g.g.g.g.g.g.g.g.g.g.g.g. .Y Y r.,.Y Y Y E g.g.g.g.g.g.g.g.g.g.g.g. .c c q $ , < , < < < < < < < < < < < < < < ",
"< < < 0 < < < , < , < < < , , < < < < < < < : < X O & g.O.` r.g.g.g.g.g.g.g.g.g.g.g.g.g.g.g.g.6.C x x =.` x x x v 7.g.g.g.g.g.g.g.u.g.g.g.u.r.r.c . < < , < , , < < < < < < < < < < < ",
"< < < 2 < < < , 2 1 , < < < < , < < < < < < < < X u g.g.O.E E 7.g.g.g.g.g.g.g.g.g.g.g.g.g.g.6.x v C C C C C C C C C ,.g.g.g.g.g.g.g.g.g.g.,.E E u . < , < , 2 1 < < < < < < < < < < < ",
"< < < , < < < , 2 1 , < < < < , < < < < < < ; @ b E g.g.7.,.E 7.g.g.g.g.g.g.g.g.g.g.g.g.g. .C v b L O.O.O.O.O.O.O.C C E g.g.g.g.g.g.g.g.g.,.E ,.` b @ % < : 2 1 < < , < < < < < < < < ",
"< < < < < < < < < < , < < < < < < < < < < < %   =.g.g.g.g.r.E =.7.g.g.g.g.g.g.g.g.g.g.g.,.C x C K ' g.g.g.g.g.g.7.C v b O.7.g.g.g.g.g.g.7.O.E r.g.=.  $ < < < : < < < < < < < < < < < ",
"< < < < < < < < < e 0 , < , , < < < < < < < -   -.j.g.g.g.r.E E ' g.g.g.g.g.g.g.g.g.g.g.c x x C O.g.g.g.g.g.g.g.7.C C b x 6.g.g.g.g.g.g.' E E r.g.=.  $ , , , i 0 < < < < < < < < < < ",
"< < < < < < < < < h g < < , < , < < < < < @ X   =.g.g.g.g.g.r.' E ` r.g.g.g.g.g.g.g.g.g.c c b C O.g.g.g.g.g.g.g.g.7.L b x 6.g.g.g.g.r.` E  .r.g.g.=.  $ < < < l p < < < < < < < < < < ",
"< < < < < < < < < < < < < < < , < < < < , @ & u 7.g.g.g.g.g.g.,.' E =.7.g.g.g.g.g.g.g.g.c v D ` ,.g.g.g.g.g.g.g.g.g.O.E D r.g.g.g.g.r.E  .,.g.g.g.7.u > % < < , , < < < < , < < < < < ",
"< < < < < < < < , < < < < , , < < , < < < o 7 g.g.g.g.g.g.g.g.g.7.E E =.g.g.g.g.g.g.g.g.c v K g.g.g.g.g.g.g.g.g.g.g.g.g.g.g.g.g.g.g.r.E 7.g.g.g.g.g.g.u X < , < < , , < < < , < < < < ",
"< < < < < < < < < , , < < < < < < < : ;     8 g.g.g.g.g.g.g.g.g.g.g.` =.g.g.g.g.g.g.g.g.c v K g.g.g.g.g.g.g.g.g.g.g.g.g.g.g.g.g.g.g.r.E 7.g.g.g.g.g.g.u     % , < < < < , < , < < < < ",
"< < < < < < < < < < < < < < < < < , % # u t t D r.g.g.g.g.g.g.g.g.g.6.=. .g.g.g.g.g.g.g.c v K g.g.g.g.g.g.g.g.g.g.g.Y D D D  .g.g.g.r.E 7.g.g.g.g.g.g.E x   % , , < , , < < , < < < < ",
"< < < < < < < < < , < < < < < ; ; ; @ O C v x x O.r.g.g.g.g.g.g.g.g.g.=.E g.g.g.g.g.g.g.c v K 7.7.r.g.g.g.g.g.g.g.6.D c c c E g.g.g.r.E 7.g.g.g.g.g.g.g.E   % , , , < < < < , < < < < ",
"< < < < < < < < < < < < < , < $       O C C C C x D g.g.g.g.g.g.g.g.g.=.E g.g.g.g.g.g.g.c v C C C Y g.g.g.g.g.g.6.x O.g.g.g.g.g.g.g.r.E 7.g.g.g.g.g.g.g.E   % < , , < < , e 2.4 < < < ",
"< < < < < < < < < < < < < < < $   c C ' ,.,.O.C x D g.g.g.g.g.g.g.g.g.=.E g.g.g.g.g.g.g.c x c c v D Y 7.g.g.Y D v x O.g.g.g.g.g.g.=.' E 7.g.g.g.g.g.g.g.E   % < < < < < , 1 k < < < < ",
"< < < < < < < < , < < < < < - % = Y O.g.g.g.,.C x D g.g.g.g.g.g.g.g.g.=.E 6.r.g.g.g.g.g.b b b x v b C =.1.,.C v x b ,.g.g.g.g.g.6.' E ' 7.g.g.g.g.g.g.g.(   % < < < < < < < < < < < < ",
"< < < < < < < , < < < < < < X 6 C g.g.g.g.g.,.C x D g.g.g.g.g.g.g.g.g.=.E E ,.g.g.g.g.g.g.g.6.x x c C C C C C v c g.g.g.g.g.g.g.E E ` g.g.g.g.g.g.g.g.g.E   % < < , < ; < < < < < < < ",
"< < < , < < < < < < < < < , X y 7.g.g.g.g.g.,.C x x c g.g.g.g.g.g.g.g.g.r.E ,.g.g.g.g.g.g.g.g.6.b x x b C C x x c g.g.g.g.g.g.g.E ,.r.g.g.g.g.g.g.g.g.g.E   % < < < < < < < < < < < < ",
"< < < < , < < < < < < % # # 9 b g.g.g.g.g.=.` C v c x g.g.g.g.g.g.g.g.g.g.E ,.g.g.g.g.g.g.g.g.g. .Y Y v v v x b E g.g.g.g.=.=.=.=.7.g.g.g.g.g.g.g.g.g.g.E   % < < < < < < < < < < < < ",
"< < < < < < < < < < < o     c E g.g.g.g.g.` C C C v x g.g.g.g.g.g.g.g.g.g.E ,.g.g.g.g.g.g.g.g.g.g.g.g.c x x x Y g.g.g.g.g.` E E g.g.g.g.g.g.g.g.g.g.g.g.E   % , < < < < < : < < < < < ",
"< < < < < , < < #     u C n ,.g.g.g.g.g.g.g.g.g.K v x g.g.g.g.g.g.g.g.=.E E ,.g.g.g.g.g.g.g.g.g.g.g.g.g.g.g.g.g.g.g.g.g.g.` =.g.g.g.g.g.g.g.g.g.g.g.g.g.E     @ < < < < < < < < < < < ",
"< < < < < < < # X   u L O.O.7.g.g.g.g.g.g.g.g.g.K v x g.g.g.g.g.g.g.g.=.E ,.r.g.g.g.g.g.g.g.g.g.g.g.g.g.g.g.g.6.O.O.O.O.O.,.7.g.g.g.g.g.g.g.g.g.g.g.g.g.7.C & X o < < < < < < < < < < ",
"< < < < < < < X & 7 Y ,.g.g.g.g.g.g.7.,.g.g.g.g.C v b g.g.g.g.g.g.g.7.O.E g.g.g.g.g.g.g.g.g.g.g.g.g.g.g.g.6.6.=.' ' ' ' ' g.g.g.g.g.g.g.g.g.g.g.g.g.l.g.g.g.x 7 7 % % % < < , < < < < ",
"< < < < < < , X c g.g.g.g.g.g.g.g.g. .K g.g.g.g.c D g.g.g.g.g.g.g.g.` E E g.g.g.g.g.g.g.g.g.g.g.g.g.g.g.,.E E =.g.g.g.g.g.g.g.g.g.g.g.g.g.g.g.g.g.g.g.g.g.g.g.g.g.    X , , , < < < < ",
"< < < < < < , X c g.Y Y Y Y Y Y Y g. .C b b b b x D g.g.g.g.g.g.g.g.`  .6.g.g.g.g.g.g.g.g.g.g.g.g.g.g.O.` E 7.r.g.g.g.g.g.g.g.g.g.g.g.g.g.g.g.g.g.g.g.g.g.g.g.g.g.E u X X X @ < < < < ",
"< < < < < < , X x O.C C C C C C C O.L v x b D D D ` g.g.g.g.g.g.r.,.E =.g.g.g.g.g.g.g.g.g.g.g.g.g.g.g.` `  .g.g.g.g.g.g.g.g.g.g.g.g.g.g.g.g.g.g.g.g.g.g.g.g.g.g.g.g.L u u O X < < < < ",
"< < < < < < , X t C C C C C C C C C v x x ' g.g.g.g.g.g.g.g.g.g.7.E E =.g.g.g.g.g.g.g.g.g.g.g.g.g.g.g.` O.g.g.g.g.g.g.g.g.g.g.g.g.g.g.g.g.g.g.g.g.g.g.g.g.g.g.g.g.g.l.g.g.7 X < < < < ",
"< < < < < < , X 6 x x x x x x x x x x c 6.r.g.g.g.g.g.g.g.g.g. .` E 7.g.g.g.g.g.g.g.g.g.g.g.g.g.g.7.` E O.g.g.g.g.g.g.g.g.g.g.g.c c c c ,.g.g.g.g.g.g.g.g.g.g.g.g.g.g.g.g.7 X < < < < ",
"< < < < < < , X u Y L Y Y Y Y Y Y Y Y E g.g.g.g.g.g.g.g.g.g.g.,.=.=.g.g.g.g.g.g.g.g.g.g.,.=.=.=.=.=.=.=.6.g.g.g.g.g.g.g.g.E Y Y x c v v =.,.Y r.g.g.g.g.g.g.g.g.g.g.g.g.g.7 X < < < < ",
"< < < < < < , X c g.g.g.g.g.g.g.g.g.g.g.g.g.g.g.g.g.g.g.g.g.g.g.g.g.g.g.g.g.g.g.g.g.r.r.' ` ` ` `  .g.g.g.g.g.g.g.g.6.6.6.c x x x b K K ,.` x O.7.g.g.g.g.g.g.g.g.g.g.g.g.7 o , < < < ",
"< < < < < < , X c g.g.g.g.g.g.g.g.g.g.g.g.g.g.g.g.g.g.g.g.g.g.g.g.g.g.g.g.g.g.g.g.g.,.E r.g.g.g.g.g.g.g.g.g.g.g.g.g.b x x x v C C O.g.g.g.` x x Y g.g.g.g.g.g.g.g.g.g.g.g.7 o , < < < ",
"< < , ; , , < X c g.g.g.g.g.=.O.O.g.g.g.g.g.g.g.g.g.g.g.g.g.g.g.g.g.O.O.O.O.O.O.O.O.' E r.g.g.g.g.g.g.g.g.g.g.g.r.D b v v v b C C O.g.g.g.6.` c Y g.g.g.g.g.g.g.g.g.l.g.g.7 X @ ; , < ",
"< < , < < ; %   c g.6.6.6.6.' E E 7.6.6.6.6.7.g.g.g.g.g.g.g.6.6.6.6.' ' ' ' ' ' ' ' ' ' g.g.g.g.r.7.g.g.g.g.g.g.6.x b C C L Y Y Y ,.g.g.g.r.O.c Y g.g.g.g.g.g.g.g.g.g.g.g.x 7 7 > - < ",
"< , , < < $     c g.E E E E E E E E E E E E ' g.g.g.g.g.g.r.E E E E r.g.g.g.g.g.g.g.g.g.g.g.g.g.O.' g.g.g.g.g.g.6.x b C C 7.g.g.g.g.g.g.g.` x x Y g.g.g.g.g.g.g.g.g.g.g.g.g.g.u.& @ < ",
", < ; X X     E 7.g.r.r.r.r.r.r.r.r.r.r.r. .E ` r.g.g.g.g.g.r.r.r.r.g.g.g.g.g.g.g.g.g.g.g.g.g.g.O.' g.g.g.g.g.g.6.x x c C 7.g.g.g.g.g.g.g.` x O.7.g.g.g.g.g.g.g.g.g.g.g.g.g.g.g.& @ < ",
", < ;   t u u 7.g.g.g.g.g.g.g.g.g.g.g.g.g.,.' E r.g.g.g.g.g.g.g.g.g.g.g.g.` ` ` ` ` O.g.g.g.g.g.O.' g.g.g.g.g.g.7.D c c C 7.g.g.g.g.g.g.g.` x 6.g.g.g.O.` ` ` ` ` ` `  .g.g.=.C O o < ",
"B < ;   E g.g.g.g.g.g.g.g.g.g.g.g.g.g.g.g.g.7.E r.g.g.g.g.g.g.g.g.g.g.g.g.x x x x x D g.g.g.g.g.O.' g.g.g.g.g.g.g.g.b c C 7.g.g.g.g.g.g.g.` x 6.g.g.g.D x x x x x x x c g.g.E     @ < ",
"r o & g.g.g.g.g.g.g.g.g.g.g.g.g.g.g.g.g.g.g.7.E r.g.g.g.g.g.g.g.g.g.g.Y x x v C C c x x x Y g.g.O.' g.g.g.g.g.g.g.g.b c C C  .g.g.g.g.g.b x x 6.g.6.x x c C C C C C v x x O.E     o < ",
"< o O Y Y  .g.g.g.g.g.g.g.g.g.g.g.g.g.g.g.g.7.E r.g.g.g.g.r.L L Y Y Y C v v b K  .E Y Y Y O.g.g.O.' g.g.g.g.g.g.g.g.' K v b Y  .g.g.r.Y c v Y r.g.6.x b E  .K L  .C b c x D v   @ % < ",
", @ . x x b 6.6.6.6.6.6.r.g.g.g.g.g.g.g.g.g.7.E r.g.g.g.g.6.x x x x x v C K K E g.g.g.g.g.g.g.g.O.' r.g.g.g.g.g.g.g.g.O.x b b C g.g.6.x c K g.g.g.6.x ` g.g.` ` g.K D b x x t   ; < < ",
", o O C c x x x x x x x b g.g.g.g.g.g.g.g.g.7.E r.g.g.g.g.6.x b C C C C C g.g.g.g.g.g.g.g.g.g.g.g.7.E r.g.g.g.g.g.g.g.O.x x v C g.g.6.x O.g.g.g.g.6.x ' g.g.g.g.g.g. .n C C c   ; < < ",
"; ; ; = c K O.$.O.O.O.b c b ,.g.g.g.g.g.g.g.7.E r.g.g.g.g.6.x b C C O.,.,.g.g.g.g.g.g.g.g.g.g.g.g.r.7.O.' ' ' ,.g.g.g.r.O.c x c g.g.7.O.r.g.g.g.' b O.r.g.g.g.g.g.g.7.=.C 9 * % , < < ",
"< < ;   c E g.g.g.g.g.Y v c ` O.O.O.6.g.g.g.7.E r.g.g.g.g.6.x b C C 7.g.g.g.g.g.g.g.g.g.g.g.g.O.6.g.g. .' ' E =.g.g.g.g.g.b b b g.g.g.g.g.g.g.g.Y c g.g.g.g.g.g.g.g.g.7.C = X , < < < ",
"< < ;   c ` g.g.g.g.g.g.,.C c x x x Y g.g.g.6.E r.g.g.g.g.6.x b C C 7.g.g.g.g.g.g.g.g.g.g.g.6.x ` g.g.g.g.g.E =.g.g.g.g.g.g.g.g.g.g.g.g.g.g.g.g.Y c g.g.g.g.g.g.g.g.g.7.C = X < < < < ",
"< < ;   c / g.g.g.g.g.g.,.C b b b x Y g.g.g.7.E r.g.g.g.g.6.x b Y 7.g.g.g.g.g.g.g.g.g.g.g. .D x ' g.g.g.g.g.r.=.` ` 7.g.g.g.g.g.g.g.g.g.g.g.g.g.Y c g.g.g.g.g.g.g.g. .K C = X < < < < ",
", < ; # 8 c  .r.g.g.g.g.7. . . . .v C E g.g.7.E O.6.g.g.g.6.x b Y g.g.g.g.g.g.g.g.g.g.g.g. .b x ' g.g.g.g.g.g.7.O.E 7.g.g.g.g.g.g.g.g.g.g.g.g.g.Y c g.g.g.g.g.g.g.g. .b t * $ < < < < ",
"< < < , X 7 C 7.g.g.g.g.g.g.g.g.g.C v c g.g.7.E E O.g.g.g.6.x b Y g.g.g.g.g.g.g.g.g.g.g.g. .b x ' g.g.g.g.g.g.g.r.E 6.g.g.g.g.g.g.g.g.g.g.g.g.g.Y c g.g.g.g.g.g.g.g.' v   % < < , < < ",
"< < < , X 7 C C  .g.g.g.g.g.g.g.g.C v c g.g.g.g.g.g.g.g.g.6.x v Y g.g.g.g.g.g.g.g.g.g.g.g. .b x ' g.g.g.g.g.g.g.g.g.' ' g.g.g.g.g.O.E E E E E E =.6.x ' g.g.g.g.g.C C v   % < < < < < ",
"< < < , % * 7 b  .g.g.g.g.g.g.g.g.O.D c g.g.g.g.g.g.g.g.g.6.x c C g.g.g.g.g.g.g.g.g.g.g.K b c x ' g.g.g.g.g.g.g.g.g.' E O.O.O.O.O.=.,.,.,.,.,.E =.e.` Y E g.g.g.g.n x 6 $ ; , < < < < ",
"< < < < < $   v ` 7.g.g.g.g.g.g.g.g.Y c 6.r.g.g.g.g.g.g.g.6.c c b 6.6.6.6.g.r.6.6.6.6.6.b c c c  .g.g.g.g.g.g.g.g.g.O.` ` ` ` ` ` 6.g.g.g.g.g.' =.r.g.D b g.g.r.7.C t X < < < < < < < ",
"< < < < < %   v C C g.g.g.g.g.g.g.g.Y x x ' g.g.g.g.g.g.g.g.g.g.O.x x x x g.D x x x x x 6.g.g.g.g.g.g.g.g.g.g.g.g.g.g.g.g.g.g.g.g.g.g.g.g.g.g.g.=.` g.D b g.g.O.C C t X < < < < < < < ",
"< < < < < ; % = u C Y =.g.g.g.g.g.g.' v x ' g.g.g.g.g.g.g.g.g.g.r.O.O.D x b x v O.O.O.O.g.g.g.g.g.g.g.g.g.g.g.g.g.g.g.g.g.g.g.g.g.g.g.g.g.g.g.g.=.` g.D c b ,.O.C = * ; < < < < < < < ",
", < < , , < < @ 6 u C ` ,.g.g.g.g.g. .b x ' g.g.g.g.g.g.g.g.g.g.g.g.g. .D D D Y g.g.g.g.g.g.g.g.g.g.g.g.g.g.g.g.r.` ` ` ` ` ` ` ` ` ` ` r.g.g.g.=.` ,.E b x K D u @ % < , , < < < < < ",
"< < < < , < < 1 $   C C Y g.g.g.g.g. .b x ' g.g.g.g.g.g.g.g.g.g.g.g.g.g.g.g.g.g.g.g.g.g.g.g.g.g.g.g.g.g.g.g.g.g.6.x x x x x x x x x x x O.g.g.g.=.E E ,.O.x x 9   : < < < < < < < < < ",
"< < < < < < , w *   O x Y g.g.g.g.g.Y x x ' g.g.g.g.g.g.g.g.g.g.g.g.g.g.g.g.g.g.g.g.g.g.g.=. .g.g.g.g.g.g.g.g.E c x v b b b b b b b b x x c c 6.g.7.E ` O.6.6.b   , < , < < < < < < < ",
"< < < < < < < < - #   u K  .7.u.g.g.Y c Y ,.g.g.g.g.g.g.g.g.g.g.g.g.g.g.g.g.g.g.g.g.g.g.,.=.,.g.g.g.g.g.g.g.g.Y x v E  . .D Y  . .L b v v c x K O.r.=.' ` =.b y # , < < , < < < < < < ",
"< < < < < < < < < ,   y b C O.r.g.6.K c g.g.g.g.g.g.g.g.g.g.g.g.g.g.g.g.r.r.r.r.r.r.r.r.` =.g.g.g.g.g.g.g.g.6.L c C ,.g.g.K  .g.g.` C C C v x x Y g.g.O.Y D 6 @ < < < < , < , < < < < ",
"< < < < < < < < < ,     = C C ` g.x x c g.g.g.g.g.g.g.g.g.g.g.g.g.g.g.=.E E E E E E E E E =.g.g.g.g.g.g.g.g.x v C C ,.g.g.K ' g.g.` C C C C C x Y g.g.g.E   % < , < < < , < < < < < < ",
"< < < < < < < < < < $ X X 7 v K ` v y = u u u u 6.g.g.g.g.g.g.=.O.O.O.=.,.,.,.,.,.,.,.,.,.7.g.g.g.g.g.g.O.D x v D O.7.g.g.=.6.g.g.` D O.K C C x v K g.C y $ ; < < < < , < , < , < < < ",
"< < < < < < < < < < , # X   y c c c 8 X X X X X U  .g.6.6.6.6.` E ' ' ,.g.g.g.g.g.g.g.g.g.g.g.g.g.g.g.g.` x c v K g.g.g.g.g.g.g.g. .` g.' L C c x c E 9 @ < < < < < < < < < < , < < < ",
"< < < < < < < < < < < < %           # , , < < < X u g.E E E E E  .g.g.g.g.g.g.g.g.g.g.g.g.g.g.g.g.g.g.g.` x C C K g.g.g.g.g.g.g.g.g.g.g.g.O.C C v u   $ < < < < < < < < , < < , < < < ",
"< < < < < < < < < < , < : % * 2 ; % ; , < < < < X & 7 E O.7.7.7.7.g.g.g.g.g.g.g.g.g.g.g.g.g.g.g.b 7 7 7 9 x C ` 6.g.g.g.g.g.g.g.g.g.g.g.g.7.,.K u # % ; < < < < , < < < < w < , < < < ",
"< < < < < < < < < < < , < < < 2 < , , < < < < < @ X   c  .g.g.L C C C C C C C C C C C C C C C C 7 X o   + 9 C E =.g.g.g.g.g.g.g.g.g.g.g.g.=.C x 6 @ < < < < < , < < < , < 2 : < < < < ",
"< , < < , < , < < , < < < < < < < < < < < < < < < $     C g.g.7                                   o h X     C C K g.l.g.g.g.g.g.g.g.g.g.g.C     # < < < < < < < < < < < < < < < < < < ",
"< , ; , , < < , < < < < , < < < < < < < < < < < < < < , @     % < < < < < < < < , , < < , < < < < 2 j < $     t C C C Y g.g.g.g.g.g.g.g.7 o , , < < < , , , < , < < < < < < < < < < < ",
"1 w , , < , < < , < < < < < < < < < < < < < < < < < < < % # # ; < < < < < < < < < < < < < < , < , < , < ; # # > t t v Y g.g.g.g.g.L c c > $ 2 w , < < , , , < < < < < < < < < < < < < ",
"0 s , < < < < 4 2 , < < < < < < < < < < < < < < < < < < < < < < < < < < < < < < < < , < < , < < < < < < < < < $ X   u D 7.7.1.=.=.y X X % , e p < < < < , e 2 < < < < < < < < < < < < ",
"< , < < < < < z p , < < < < < < < < < < < < < < < < < < < < < < < < < < < < < < < < < < 4 0 < < < , < < < , , < ;     = C C t     $ < < < < , < < < < < < M e < < < < < < < < < < < < ",
"< , , < < , < < , < < < < < < < < < < < < < < < < < < < < < < < < < < < < < < < < , < , j h , , < < < < < < , < ; % X . = & * % % ; < < < < < < < < , < , < < < < < < < < < < < < < < ",
"< < < < , < , < < < < < < < < < < < < < < < < < < < < < < < < < < < < < < < < < < < < < < , < < < < , < < < < < < < @ X X X % < < < , < < < < < < , < < < < < < < < < < < < < < < < < ",
"< < < < < < < , < , < < < < < < < < < < < < < < , : , < < < < < < < < < < < < < < < < , < < , < < < < < < < < , < < < < < < < < < < < < < < < < , : < < < , < , < < < < < < < < < < < ",
"< < < , < < < < < , < < < < < , < < < < < < < < d | < < < < < < < < < < < < < < < < < < < < < < , < < , < < w 2 < < < < < < < < < < < < < < < < < , < , < < , , < < < < < < < < < < < ",
"< < < e < , , < < , < < < < < < < < < < < < < < 1 w < , < , < < < < < < < < < < < < < < < < < < < < < < < < < < < < < < < < < < < < < < < < < < < e < < , < < , < < < < < < < < < < < ",
"< , < 1 , < < , 2 2 < < < < < < < < < < < < < < , < , < , < < < < < < < < < < < < < < < < < < < < < , < , < , < < < < < < < < < < < < < < < < < < 1 < , < , 5 2 < < < < < < < < < < < "
};
